<svg version="1.1" id="Layer_1" xmlns="http://www.w3.org/2000/svg" xmlns:xlink="http://www.w3.org/1999/xlink" x="0px" y="0px"
	 width="100%" viewBox="83.9 107.129 299.315 239.656" enable-background="new 0 0 447 393" xml:space="preserve">
    <path fill="#000000" opacity="1.000000" stroke="none"
        d="M268.000000,272.078064 
        C247.507248,272.077667 227.513916,272.164398 207.522049,272.031372 
        C200.149048,271.982330 192.941330,270.907043 186.697876,266.370789 
        C178.292648,260.263824 173.951721,252.080383 173.944504,241.686874 
        C173.920441,207.032791 173.916855,172.378647 173.942871,137.724564 
        C173.955841,120.443977 186.735840,107.189079 204.127838,107.129333 
        C253.775925,106.958763 303.425446,106.949287 353.073395,107.134842 
        C370.104614,107.198486 383.037933,119.985733 383.214508,137.333618 
        C383.568878,172.150650 383.582184,206.976562 383.215668,241.793335 
        C383.022156,260.178223 369.649414,271.974060 349.970062,272.050049 
        C322.813751,272.154907 295.656708,272.077423 268.000000,272.078064 
    M323.559875,201.946732 
        C333.124359,216.560486 342.645050,231.203400 352.322327,245.742096 
        C353.270905,247.167175 355.928894,249.164154 356.507263,248.807846 
        C358.297638,247.704941 359.866760,245.773315 360.748749,243.815231 
        C361.443695,242.272278 361.045776,240.214127 361.046356,238.384781 
        C361.056732,205.901962 361.055115,173.419159 361.052887,140.936340 
        C361.052216,130.831177 359.564270,129.322510 349.563965,129.321808 
        C302.255676,129.318481 254.947372,129.320282 207.639084,129.320572 
        C206.473038,129.320572 205.302567,129.258820 204.141693,129.337265 
        C198.300140,129.732025 196.005554,131.998749 195.998642,137.803146 
        C195.957535,172.284836 196.004074,206.766663 195.944656,241.248306 
        C195.938034,245.089706 197.485550,248.200638 201.039474,248.740021 
        C202.829132,249.011658 205.630646,246.862274 206.986771,245.063080 
        C216.601578,232.307053 225.919510,219.327850 235.416550,206.482239 
        C240.927414,199.028290 248.836136,199.025452 254.532227,206.358612 
        C256.827118,209.313080 259.068573,212.309052 261.772705,215.862122 
        C263.592926,213.161835 264.973022,211.145630 266.321625,209.108582 
        C273.484711,198.288757 280.521942,187.383209 287.837006,176.667221 
        C293.203308,168.806015 301.662598,168.929688 306.925537,176.770721 
        C312.396545,184.921783 317.744110,193.155731 323.559875,201.946732 
    z"/>
    <path fill="#000000" opacity="1.000000" stroke="none"
					d="M158.698532,172.335114
					C158.698792,223.089294 158.698792,273.379913 158.698792,324.155334
					C188.581436,324.155334 218.244156,324.155334 248.442047,324.155334
					C248.442047,313.535065 248.670135,303.089325 248.336441,292.661591
					C248.190887,288.112762 249.699692,286.826752 254.029297,287.217224
					C258.160309,287.589752 262.378632,287.591522 266.508057,287.209869
					C270.320190,286.857544 270.999146,288.503662 270.947998,291.791046
					C270.802795,301.117645 271.117096,310.455505 270.797546,319.773376
					C270.655243,323.923462 272.128845,324.906586 275.947845,324.713898
					C281.597534,324.428864 287.275482,324.758087 292.934998,324.598999
					C298.615265,324.439270 301.149994,321.894836 301.222565,316.201752
					C301.343170,306.743347 301.255432,297.282227 301.255432,287.529572
					C308.691681,287.529572 315.756134,287.529572 322.307892,287.529572
					C322.307892,299.703644 323.561249,311.957886 321.975494,323.833038
					C320.185181,337.240143 307.797028,346.616852 294.260345,346.647583
					C233.789658,346.784912 173.318222,346.810486 112.847740,346.640137
					C97.150490,346.595917 84.011734,333.697968 83.900391,317.977875
					C83.612495,277.332916 83.613998,236.683289 83.898849,196.038330
					C84.008987,180.323273 97.142487,167.625763 112.832794,167.343582
					C126.821541,167.092010 140.820099,167.410309 154.810532,167.211365
					C158.592148,167.157578 158.894394,169.079010 158.698532,172.335114
				M136.255417,194.687241
					C136.846817,190.731888 135.535034,188.948425 131.164261,189.228241
					C125.537186,189.588470 119.867081,189.210709 114.220604,189.352921
					C108.937775,189.485962 106.102951,191.868225 105.922752,196.676941
					C105.674004,203.314560 105.748764,209.971130 105.947670,216.611740
					C105.979675,217.680313 107.356758,219.600189 108.146774,219.618378
					C117.378769,219.830948 126.617409,219.754593 136.255341,219.754593
					C136.255341,211.227234 136.255341,203.440109 136.255417,194.687241
				M105.954857,295.917603
					C105.913101,302.565002 105.785637,309.213257 105.854645,315.859497
					C105.918518,322.009552 108.506561,324.548370 114.750671,324.659821
					C120.400620,324.760712 126.059280,324.533569 131.703400,324.741516
					C135.078125,324.865845 136.576828,323.897644 136.319550,320.265839
					C136.038330,316.296265 136.255264,312.291443 136.255188,308.301971
					C136.255112,303.738434 136.255173,299.174866 136.255173,294.227295
					C130.936707,294.227295 126.474716,294.122620 122.019730,294.254517
					C116.769516,294.409943 111.525383,294.770294 105.954857,295.917603
				M136.246048,257.498199
					C136.246048,252.554367 136.246048,247.610550 136.246048,242.090652
					C126.541916,242.090652 117.436050,242.013321 108.336540,242.218109
					C107.487968,242.237213 105.986580,244.025040 105.962166,245.020416
					C105.766235,253.006378 105.766228,261.001404 105.962593,268.987305
					C105.987022,269.980713 107.492523,271.764496 108.343193,271.783630
					C117.442253,271.988159 126.547653,271.910858 136.246109,271.910858
					C136.246109,267.050537 136.246109,262.771667 136.246048,257.498199
				z"/>
    <path fill="#000000" opacity="1.000000" stroke="none"
				d="M211.267426,157.473068
				C213.641663,149.190201 217.324860,145.662766 223.939880,144.985565
				C232.818893,144.076584 239.595810,148.890976 240.590836,156.814560
				C241.739990,165.965500 236.746475,172.997223 228.285965,174.141876
				C219.374924,175.347488 212.373779,169.933380 211.161652,160.848923
				C211.032043,159.877457 211.189224,158.867737 211.267426,157.473068
			z"/>
</svg>
