<?xml version="1.0" encoding="UTF-8"?>
<svg id="Layer_2" data-name="Layer 2" xmlns="http://www.w3.org/2000/svg" viewBox="0 0 208.26 208.22">
  <defs>
    <style>
      .cls-1, .cls-2 {
        fill: #231f20;
      }

      .cls-2 {
        stroke: #000;
        stroke-miterlimit: 10;
        stroke-width: 10px;
      }

      .cls-3 {
        fill: #a31c36;
      }
    </style>
  </defs>
  <g id="Layer_1-2" data-name="Layer 1">
    <path class="cls-1" d="M114.62,136.48v-16.45c4.53,0,7.94-.64,10.24-1.93,2.35-1.4,3.8-2.99,4.36-4.78.62-1.79.98-5.34,1.09-10.66h-15.69v-30.63h41.88v26.1c0,9.45-.34,15.89-1.01,19.3-.67,3.47-2.63,6.91-5.87,10.32-3.24,3.3-7.19,5.59-11.83,6.88-4.53,1.23-12.25,1.85-23.16,1.85ZM57.97,136.48v-16.45c4.48,0,7.86-.64,10.15-1.93,2.41-1.34,3.89-2.94,4.45-4.78.62-1.85.95-5.4,1.01-10.66h-15.61v-30.63h41.79v26.1c0,9.45-.34,15.89-1.01,19.3-.67,3.47-2.63,6.91-5.87,10.32-3.24,3.3-7.19,5.59-11.83,6.88-4.53,1.23-12.23,1.85-23.08,1.85Z"/>
    <g>
      <path class="cls-2" d="M66.91,175.3c-33.23-17.41-50.57-56.39-39.52-93.62C39.74,40.07,83.69,15.69,125.51,27.3c40.66,11.29,64.97,51.74,57.27,92.05-.92,4.81,1.9,9.53,6.58,10.95h0c5.43,1.65,11.07-1.78,12.14-7.35,9.35-48.86-19.28-97.89-67.7-113.07C81.91-6.39,26.05,22.68,9.65,74.53c-14.76,46.67,6.77,95.94,48.52,117.73,5.27,2.75,11.74-.05,13.46-5.73h0c1.33-4.39-.66-9.09-4.72-11.22Z"/>
      <path class="cls-2" d="M138.14,176.87c-34.08,15.68-75.53,5.6-98.27-25.9-25.4-35.19-17.86-84.89,16.88-110.9,33.78-25.29,80.65-19.84,107.86,10.87,3.24,3.66,8.71,4.32,12.69,1.48h0c4.62-3.29,5.35-9.86,1.59-14.1C145.93,1.08,89.63-6.2,48.03,22.86,3.45,54.01-7.66,116,23.38,160.65c27.94,40.19,80.1,53.24,122.85,33.49,5.39-2.49,7.13-9.32,3.68-14.16h0c-2.66-3.74-7.6-5.03-11.77-3.12Z"/>
      <circle class="cls-3" cx="186.13" cy="168.13" r="21.93"/>
    </g>
  </g>
</svg>